<?xml version="1.0" standalone="no"?>
<!DOCTYPE svg PUBLIC "-//W3C//DTD SVG 20010904//EN"
 "http://www.w3.org/TR/2001/REC-SVG-20010904/DTD/svg10.dtd">
<svg version="1.0" xmlns="http://www.w3.org/2000/svg"
 width="700.000000pt" height="700.000000pt" viewBox="0 0 700.000000 700.000000"
 preserveAspectRatio="xMidYMid meet">
<metadata>
Created by potrace 1.14, written by Peter Selinger 2001-2017
</metadata>
<g transform="translate(0.000000,700.000000) scale(0.100000,-0.100000)"
fill="#000000" stroke="none">
<path d="M3163 4809 c-35 -4 -67 -10 -71 -13 -10 -6 -13 -2166 -3 -2164 6 2
115 -9 176 -18 105 -14 395 -19 491 -9 366 41 553 170 619 430 24 93 29 309 9
385 -46 176 -194 332 -376 398 -27 9 -48 19 -48 23 0 3 11 11 25 17 38 17 115
92 147 142 89 140 100 404 21 540 -68 117 -235 227 -408 267 -43 10 -508 12
-582 2z m512 -122 c11 -3 40 -10 65 -17 71 -19 192 -86 239 -133 63 -62 90
-122 95 -208 10 -221 -95 -360 -321 -420 -65 -18 -115 -21 -305 -24 l-228 -4
0 410 0 410 218 -4 c119 -3 226 -7 237 -10z m150 -950 c117 -29 171 -52 245
-100 137 -91 201 -206 202 -366 3 -327 -154 -477 -547 -526 -93 -11 -489 -4
-503 9 -2 3 -5 773 -3 947 l1 46 293 -2 c160 -2 301 -5 312 -8z"/>
<path d="M4638 4802 l-28 -3 0 -1080 0 -1079 68 0 68 0 0 930 c-1 511 2 926 6
922 6 -7 185 -364 542 -1084 87 -175 160 -318 162 -318 3 0 24 42 48 93 24 50
85 178 136 282 51 105 123 253 160 330 302 625 339 701 340 690 1 -5 2 -423 2
-927 l1 -918 66 0 66 0 0 1075 c0 859 -3 1077 -13 1084 -23 14 -115 3 -127
-16 -5 -10 -161 -318 -346 -686 l-336 -668 -50 98 c-27 54 -81 159 -120 233
-39 74 -123 239 -188 365 -245 475 -330 640 -340 656 -10 17 -67 27 -117 21z"/>
<path d="M990 4793 c-13 -3 -15 -128 -13 -1061 0 -581 2 -1066 2 -1077 1 -19
7 -21 61 -20 33 1 63 4 66 7 3 4 6 253 7 555 l2 548 543 0 c540 1 542 1 543
-20 0 -11 1 -256 1 -545 0 -289 4 -530 9 -535 7 -9 38 -11 109 -6 13 1 15 125
15 1076 0 951 -2 1075 -15 1076 -18 2 -103 1 -111 0 -3 -1 -6 -200 -7 -443 0
-244 -1 -448 -1 -454 -1 -9 -142 -12 -545 -12 l-544 0 -1 450 c0 248 -3 453
-6 456 -6 6 -91 10 -115 5z"/>
<path d="M508 3186 c-3 -9 -2 -924 1 -977 1 -14 266 -16 2983 -15 l2983 1 0
65 0 65 -2916 3 -2916 2 -1 383 c-1 210 -1 405 -1 433 l-1 50 -64 1 c-40 0
-66 -4 -68 -11z"/>
</g>
</svg>
